<mxfile host="Electron" modified="2023-11-23T15:19:26.423Z" agent="Mozilla/5.0 (Windows NT 10.0; Win64; x64) AppleWebKit/537.36 (KHTML, like Gecko) draw.io/21.6.8 Chrome/114.0.5735.289 Electron/25.5.0 Safari/537.36" etag="TXsSnb3K78Io6MODzN2L" version="21.6.8" type="device">
  <diagram id="kNCn0eWv1TOHV3h1SxTp" name="Page-1">
    <mxGraphModel dx="2268" dy="820" grid="1" gridSize="10" guides="1" tooltips="1" connect="1" arrows="1" fold="1" page="1" pageScale="1" pageWidth="850" pageHeight="1100" math="0" shadow="0">
      <root>
        <mxCell id="0" />
        <mxCell id="1" parent="0" />
        <mxCell id="Uv9L5BMe3XB-WfCxniVA-25" value="" style="whiteSpace=wrap;html=1;aspect=fixed;fillColor=#dae8fc;strokeColor=#6c8ebf;" vertex="1" parent="1">
          <mxGeometry x="470" y="60" width="580" height="580" as="geometry" />
        </mxCell>
        <mxCell id="Uv9L5BMe3XB-WfCxniVA-24" value="" style="whiteSpace=wrap;html=1;aspect=fixed;fillColor=#fff2cc;strokeColor=#d6b656;" vertex="1" parent="1">
          <mxGeometry x="-110" y="60" width="580" height="580" as="geometry" />
        </mxCell>
        <mxCell id="Uv9L5BMe3XB-WfCxniVA-1" value="" style="shape=mxgraph.cisco.routers.router;sketch=0;html=1;pointerEvents=1;dashed=0;fillColor=#036897;strokeColor=#ffffff;strokeWidth=2;verticalLabelPosition=bottom;verticalAlign=top;align=center;outlineConnect=0;" vertex="1" parent="1">
          <mxGeometry x="430" y="550" width="78" height="53" as="geometry" />
        </mxCell>
        <mxCell id="Uv9L5BMe3XB-WfCxniVA-2" value="" style="shape=mxgraph.cisco.routers.router;sketch=0;html=1;pointerEvents=1;dashed=0;fillColor=#036897;strokeColor=#ffffff;strokeWidth=2;verticalLabelPosition=bottom;verticalAlign=top;align=center;outlineConnect=0;" vertex="1" parent="1">
          <mxGeometry x="430" y="100" width="78" height="53" as="geometry" />
        </mxCell>
        <mxCell id="Uv9L5BMe3XB-WfCxniVA-3" value="" style="shape=mxgraph.cisco.routers.router;sketch=0;html=1;pointerEvents=1;dashed=0;fillColor=#036897;strokeColor=#ffffff;strokeWidth=2;verticalLabelPosition=bottom;verticalAlign=top;align=center;outlineConnect=0;" vertex="1" parent="1">
          <mxGeometry x="740" y="330" width="78" height="53" as="geometry" />
        </mxCell>
        <mxCell id="Uv9L5BMe3XB-WfCxniVA-4" value="" style="shape=mxgraph.cisco.routers.router;sketch=0;html=1;pointerEvents=1;dashed=0;fillColor=#036897;strokeColor=#ffffff;strokeWidth=2;verticalLabelPosition=bottom;verticalAlign=top;align=center;outlineConnect=0;" vertex="1" parent="1">
          <mxGeometry x="130" y="330" width="78" height="53" as="geometry" />
        </mxCell>
        <mxCell id="Uv9L5BMe3XB-WfCxniVA-5" value="" style="endArrow=none;html=1;rounded=0;" edge="1" parent="1" source="Uv9L5BMe3XB-WfCxniVA-4" target="Uv9L5BMe3XB-WfCxniVA-2">
          <mxGeometry width="50" height="50" relative="1" as="geometry">
            <mxPoint x="450" y="370" as="sourcePoint" />
            <mxPoint x="500" y="320" as="targetPoint" />
          </mxGeometry>
        </mxCell>
        <mxCell id="Uv9L5BMe3XB-WfCxniVA-6" value="" style="endArrow=none;html=1;rounded=0;" edge="1" parent="1" source="Uv9L5BMe3XB-WfCxniVA-4" target="Uv9L5BMe3XB-WfCxniVA-1">
          <mxGeometry width="50" height="50" relative="1" as="geometry">
            <mxPoint x="450" y="370" as="sourcePoint" />
            <mxPoint x="500" y="320" as="targetPoint" />
          </mxGeometry>
        </mxCell>
        <mxCell id="Uv9L5BMe3XB-WfCxniVA-7" value="" style="endArrow=none;html=1;rounded=0;" edge="1" parent="1" source="Uv9L5BMe3XB-WfCxniVA-3" target="Uv9L5BMe3XB-WfCxniVA-2">
          <mxGeometry width="50" height="50" relative="1" as="geometry">
            <mxPoint x="450" y="370" as="sourcePoint" />
            <mxPoint x="500" y="320" as="targetPoint" />
          </mxGeometry>
        </mxCell>
        <mxCell id="Uv9L5BMe3XB-WfCxniVA-8" value="" style="endArrow=none;html=1;rounded=0;" edge="1" parent="1" source="Uv9L5BMe3XB-WfCxniVA-1" target="Uv9L5BMe3XB-WfCxniVA-3">
          <mxGeometry width="50" height="50" relative="1" as="geometry">
            <mxPoint x="450" y="370" as="sourcePoint" />
            <mxPoint x="500" y="320" as="targetPoint" />
          </mxGeometry>
        </mxCell>
        <mxCell id="Uv9L5BMe3XB-WfCxniVA-9" value="&lt;font style=&quot;font-size: 18px;&quot;&gt;R1&lt;/font&gt;" style="text;html=1;align=center;verticalAlign=middle;resizable=0;points=[];autosize=1;strokeColor=none;fillColor=none;" vertex="1" parent="1">
          <mxGeometry x="444" y="120" width="50" height="40" as="geometry" />
        </mxCell>
        <mxCell id="Uv9L5BMe3XB-WfCxniVA-11" value="&lt;font style=&quot;font-size: 18px;&quot;&gt;R2&lt;/font&gt;" style="text;html=1;align=center;verticalAlign=middle;resizable=0;points=[];autosize=1;strokeColor=none;fillColor=none;" vertex="1" parent="1">
          <mxGeometry x="144" y="350" width="50" height="40" as="geometry" />
        </mxCell>
        <mxCell id="Uv9L5BMe3XB-WfCxniVA-12" value="&lt;font style=&quot;font-size: 18px;&quot;&gt;R4&lt;/font&gt;" style="text;html=1;align=center;verticalAlign=middle;resizable=0;points=[];autosize=1;strokeColor=none;fillColor=none;" vertex="1" parent="1">
          <mxGeometry x="754" y="350" width="50" height="40" as="geometry" />
        </mxCell>
        <mxCell id="Uv9L5BMe3XB-WfCxniVA-13" value="&lt;font style=&quot;font-size: 18px;&quot;&gt;R3&lt;/font&gt;" style="text;html=1;align=center;verticalAlign=middle;resizable=0;points=[];autosize=1;strokeColor=none;fillColor=none;" vertex="1" parent="1">
          <mxGeometry x="444" y="570" width="50" height="40" as="geometry" />
        </mxCell>
        <mxCell id="Uv9L5BMe3XB-WfCxniVA-14" value="E0/0" style="text;html=1;align=center;verticalAlign=middle;resizable=0;points=[];autosize=1;strokeColor=none;fillColor=none;" vertex="1" parent="1">
          <mxGeometry x="394" y="130" width="50" height="30" as="geometry" />
        </mxCell>
        <mxCell id="Uv9L5BMe3XB-WfCxniVA-15" value="E0/0" style="text;html=1;align=center;verticalAlign=middle;resizable=0;points=[];autosize=1;strokeColor=none;fillColor=none;" vertex="1" parent="1">
          <mxGeometry x="160" y="310" width="50" height="30" as="geometry" />
        </mxCell>
        <mxCell id="Uv9L5BMe3XB-WfCxniVA-16" value="E0/0" style="text;html=1;align=center;verticalAlign=middle;resizable=0;points=[];autosize=1;strokeColor=none;fillColor=none;" vertex="1" parent="1">
          <mxGeometry x="500" y="540" width="50" height="30" as="geometry" />
        </mxCell>
        <mxCell id="Uv9L5BMe3XB-WfCxniVA-17" value="E0/0" style="text;html=1;align=center;verticalAlign=middle;resizable=0;points=[];autosize=1;strokeColor=none;fillColor=none;" vertex="1" parent="1">
          <mxGeometry x="730" y="383" width="50" height="30" as="geometry" />
        </mxCell>
        <mxCell id="Uv9L5BMe3XB-WfCxniVA-18" value="E0/1" style="text;html=1;align=center;verticalAlign=middle;resizable=0;points=[];autosize=1;strokeColor=none;fillColor=none;" vertex="1" parent="1">
          <mxGeometry x="160" y="380" width="50" height="30" as="geometry" />
        </mxCell>
        <mxCell id="Uv9L5BMe3XB-WfCxniVA-19" value="E0/1" style="text;html=1;align=center;verticalAlign=middle;resizable=0;points=[];autosize=1;strokeColor=none;fillColor=none;" vertex="1" parent="1">
          <mxGeometry x="394" y="540" width="50" height="30" as="geometry" />
        </mxCell>
        <mxCell id="Uv9L5BMe3XB-WfCxniVA-20" value="E0/1" style="text;html=1;align=center;verticalAlign=middle;resizable=0;points=[];autosize=1;strokeColor=none;fillColor=none;" vertex="1" parent="1">
          <mxGeometry x="494" y="130" width="50" height="30" as="geometry" />
        </mxCell>
        <mxCell id="Uv9L5BMe3XB-WfCxniVA-23" value="E0/1" style="text;html=1;align=center;verticalAlign=middle;resizable=0;points=[];autosize=1;strokeColor=none;fillColor=none;" vertex="1" parent="1">
          <mxGeometry x="730" y="300" width="50" height="30" as="geometry" />
        </mxCell>
        <mxCell id="Uv9L5BMe3XB-WfCxniVA-26" value="&lt;font style=&quot;font-size: 16px;&quot;&gt;12.1.1.0/24&lt;/font&gt;" style="text;html=1;align=center;verticalAlign=middle;resizable=0;points=[];autosize=1;strokeColor=none;fillColor=none;" vertex="1" parent="1">
          <mxGeometry x="240" y="200" width="100" height="30" as="geometry" />
        </mxCell>
        <mxCell id="Uv9L5BMe3XB-WfCxniVA-27" value="&lt;font style=&quot;font-size: 16px;&quot;&gt;14.1.1.0/24&lt;/font&gt;" style="text;html=1;align=center;verticalAlign=middle;resizable=0;points=[];autosize=1;strokeColor=none;fillColor=none;" vertex="1" parent="1">
          <mxGeometry x="240" y="470" width="100" height="30" as="geometry" />
        </mxCell>
        <mxCell id="Uv9L5BMe3XB-WfCxniVA-28" value="&lt;font style=&quot;font-size: 16px;&quot;&gt;13.1.1.0/24&lt;/font&gt;" style="text;html=1;align=center;verticalAlign=middle;resizable=0;points=[];autosize=1;strokeColor=none;fillColor=none;" vertex="1" parent="1">
          <mxGeometry x="600" y="200" width="100" height="30" as="geometry" />
        </mxCell>
        <mxCell id="Uv9L5BMe3XB-WfCxniVA-29" value="&lt;font style=&quot;font-size: 16px;&quot;&gt;15.1.1.0/24&lt;/font&gt;" style="text;html=1;align=center;verticalAlign=middle;resizable=0;points=[];autosize=1;strokeColor=none;fillColor=none;" vertex="1" parent="1">
          <mxGeometry x="600" y="470" width="100" height="30" as="geometry" />
        </mxCell>
        <mxCell id="Uv9L5BMe3XB-WfCxniVA-30" value="&lt;font style=&quot;font-size: 16px;&quot;&gt;Lo: 1.1.1.1/24&lt;/font&gt;" style="text;html=1;align=center;verticalAlign=middle;resizable=0;points=[];autosize=1;strokeColor=none;fillColor=none;" vertex="1" parent="1">
          <mxGeometry x="409" y="70" width="120" height="30" as="geometry" />
        </mxCell>
        <mxCell id="Uv9L5BMe3XB-WfCxniVA-32" value="&lt;font style=&quot;font-size: 16px;&quot;&gt;Lo: 4.4.4.4/24&lt;/font&gt;" style="text;html=1;align=center;verticalAlign=middle;resizable=0;points=[];autosize=1;strokeColor=none;fillColor=none;" vertex="1" parent="1">
          <mxGeometry x="818" y="341.5" width="120" height="30" as="geometry" />
        </mxCell>
        <mxCell id="Uv9L5BMe3XB-WfCxniVA-33" value="&lt;font style=&quot;font-size: 16px;&quot;&gt;Lo: 3.3.3.3/24&lt;/font&gt;" style="text;html=1;align=center;verticalAlign=middle;resizable=0;points=[];autosize=1;strokeColor=none;fillColor=none;" vertex="1" parent="1">
          <mxGeometry x="409" y="603" width="120" height="30" as="geometry" />
        </mxCell>
        <mxCell id="Uv9L5BMe3XB-WfCxniVA-34" value="&lt;font style=&quot;font-size: 16px;&quot;&gt;Lo: 2.2.2.2/24&lt;/font&gt;" style="text;html=1;align=center;verticalAlign=middle;resizable=0;points=[];autosize=1;strokeColor=none;fillColor=none;" vertex="1" parent="1">
          <mxGeometry x="-10" y="341.5" width="120" height="30" as="geometry" />
        </mxCell>
        <mxCell id="Uv9L5BMe3XB-WfCxniVA-35" value="&lt;font style=&quot;font-size: 32px;&quot;&gt;RIP&lt;/font&gt;" style="text;html=1;align=center;verticalAlign=middle;resizable=0;points=[];autosize=1;strokeColor=none;fillColor=none;" vertex="1" parent="1">
          <mxGeometry x="114" y="80" width="80" height="50" as="geometry" />
        </mxCell>
        <mxCell id="Uv9L5BMe3XB-WfCxniVA-37" value="&lt;font style=&quot;font-size: 32px;&quot;&gt;OSPF&lt;/font&gt;" style="text;html=1;align=center;verticalAlign=middle;resizable=0;points=[];autosize=1;strokeColor=none;fillColor=none;" vertex="1" parent="1">
          <mxGeometry x="720" y="80" width="110" height="50" as="geometry" />
        </mxCell>
      </root>
    </mxGraphModel>
  </diagram>
</mxfile>
